<?xml version="1.0" encoding="utf-8"?>
<svg version="1.1" xmlns:xlink="http://www.w3.org/1999/xlink" width="56px" height="60px" xmlns="http://www.w3.org/2000/svg">
  <g transform="matrix(1 0 0 1 -207 -554 )">
    <path d="M 54.6801346801347 44.8484848484848  C 55.5600448933782 45.7912457912458  56 46.9360269360269  56 48.2828282828283  C 56 49.6296296296296  55.5600448933782 50.7744107744108  54.6801346801347 51.7171717171717  L 48.2693602693603 58.5858585858586  C 47.3894500561167 59.5286195286195  46.320987654321 60  45.0639730639731 60  C 43.8069584736251 60  42.7384960718294 59.5286195286195  41.8585858585859 58.5858585858586  L 28 43.7373737373737  L 14.1414141414141 58.5858585858586  C 13.2615039281706 59.5286195286195  12.1930415263749 60  10.9360269360269 60  C 9.67901234567901 60  8.61054994388328 59.5286195286195  7.73063973063973 58.5858585858586  L 1.31986531986532 51.7171717171717  C 0.439955106621774 50.7744107744108  0 49.6296296296296  0 48.2828282828283  C 0 46.9360269360269  0.439955106621774 45.7912457912458  1.31986531986532 44.8484848484848  L 15.1784511784512 30  L 1.31986531986532 15.1515151515151  C 0.439955106621774 14.2087542087542  0 13.0639730639731  0 11.7171717171717  C 0 10.3703703703704  0.439955106621774 9.22558922558922  1.31986531986532 8.28282828282829  L 7.73063973063973 1.41414141414141  C 8.61054994388328 0.471380471380469  9.67901234567901 0  10.9360269360269 0  C 12.1930415263749 0  13.2615039281706 0.471380471380469  14.1414141414141 1.41414141414141  L 28 16.2626262626263  L 41.8585858585859 1.41414141414141  C 42.7384960718294 0.471380471380469  43.8069584736251 0  45.0639730639731 0  C 46.320987654321 0  47.3894500561167 0.471380471380469  48.2693602693603 1.41414141414141  L 54.6801346801347 8.28282828282829  C 55.5600448933782 9.22558922558922  56 10.3703703703704  56 11.7171717171717  C 56 13.0639730639731  55.5600448933782 14.2087542087542  54.6801346801347 15.1515151515151  L 40.8215488215488 30  L 54.6801346801347 44.8484848484848  Z " fill-rule="nonzero" fill="#ffffff" stroke="none" transform="matrix(1 0 0 1 207 554 )" />
  </g>
</svg>