<?xml version="1.0" encoding="utf-8"?>
<svg version="1.1" xmlns:xlink="http://www.w3.org/1999/xlink" width="43px" height="42px" xmlns="http://www.w3.org/2000/svg">
  <g transform="matrix(1 0 0 1 -13 -12 )">
    <path d="M 42.4680989583333 34.2234375  C 42.8226996527778 34.6390625  43 35.13125  43 35.7  L 43 39.9  C 43 40.46875  42.8226996527778 40.9609375  42.4680989583333 41.3765625  C 42.1134982638889 41.7921875  41.6935763888889 42  41.2083333333333 42  L 1.79166666666667 42  C 1.30642361111111 42  0.886501736111111 41.7921875  0.531901041666667 41.3765625  C 0.177300347222222 40.9609375  0 40.46875  0 39.9  L 0 35.7  C 0 35.13125  0.177300347222222 34.6390625  0.531901041666667 34.2234375  C 0.886501736111111 33.8078125  1.30642361111111 33.6  1.79166666666667 33  L 41.2083333333333 33  C 41.6935763888889 33.6  42.1134982638889 33.8078125  42.4680989583333 34.2234375  Z M 42.4680989583333 17.4234375  C 42.8226996527778 17.8390625  43 18.33125  43 18.9  L 43 23.1  C 43 23.66875  42.8226996527778 24.1609375  42.4680989583333 24.5765625  C 42.1134982638889 24.9921875  41.6935763888889 25.2  41.2083333333333 25  L 1.79166666666667 25  C 1.30642361111111 25.2  0.886501736111111 24.9921875  0.531901041666667 24.5765625  C 0.177300347222222 24.1609375  0 23.66875  0 23.1  L 0 18.9  C 0 18.33125  0.177300347222222 17.8390625  0.531901041666667 17.4234375  C 0.886501736111111 17.0078125  1.30642361111111 16.8  1.79166666666667 17  L 41.2083333333333 17  C 41.6935763888889 16.8  42.1134982638889 17.0078125  42.4680989583333 17.4234375  Z M 42.4680989583333 0.623437500000002  C 42.8226996527778 1.0390625  43 1.53125  43 2.1  L 43 6.3  C 43 6.86875  42.8226996527778 7.3609375  42.4680989583333 7.7765625  C 42.1134982638889 8.1921875  41.6935763888889 8.4  41.2083333333333 9  L 1.79166666666667 9  C 1.30642361111111 8.4  0.886501736111111 8.1921875  0.531901041666667 7.7765625  C 0.177300347222222 7.3609375  0 6.86875  0 6.3  L 0 2.1  C 0 1.53125  0.177300347222222 1.0390625  0.531901041666667 0.623437500000002  C 0.886501736111111 0.207812499999998  1.30642361111111 0  1.79166666666667 0  L 41.2083333333333 0  C 41.6935763888889 0  42.1134982638889 0.207812499999998  42.4680989583333 0.623437500000002  Z " fill-rule="nonzero" fill="#ffffff" stroke="none" transform="matrix(1 0 0 1 13 12 )" />
  </g>
</svg>