<?xml version="1.0" encoding="utf-8"?>
<svg version="1.1" xmlns:xlink="http://www.w3.org/1999/xlink" width="93px" height="93px" xmlns="http://www.w3.org/2000/svg">
  <g transform="matrix(1 0 0 1 -55 -544 )">
    <path d="M 89.306640625 28.45703125  C 91.7688802083333 34.1888020833333  93 40.203125  93 46.5  C 93 52.796875  91.7688802083333 58.8111979166667  89.306640625 64.54296875  C 86.8444010416667 70.2747395833333  83.5345052083333 75.2194010416667  79.376953125 79.376953125  C 75.2194010416667 83.5345052083333  70.2747395833333 86.8444010416667  64.54296875 89.306640625  C 58.8111979166667 91.7688802083333  52.796875 93  46.5 93  C 39.5572916666667 93  32.9576822916667 91.5367838541667  26.701171875 88.6103515625  C 20.4446614583333 85.6839192708333  15.1165364583333 81.556640625  10.716796875 76.228515625  C 10.4342447916667 75.8248697916667  10.3030598958333 75.3707682291667  10.3232421875 74.8662109375  C 10.3434244791667 74.3616536458333  10.5149739583333 73.9479166666667  10.837890625 73.625  L 19.1328125 65.26953125  C 19.5364583333333 64.90625  20.041015625 64.724609375  20.646484375 64.724609375  C 21.2923177083333 64.8053385416667  21.7565104166667 65.0475260416667  22.0390625 65.451171875  C 24.9856770833333 69.2858072916667  28.5983072916667 72.2526041666667  32.876953125 74.3515625  C 37.1555989583333 76.4505208333333  41.6966145833333 77.5  46.5 77.5  C 50.6979166666667 77.5  54.7041015625 76.6826171875  58.5185546875 75.0478515625  C 62.3330078125 73.4130859375  65.6328125 71.203125  68.41796875 68.41796875  C 71.203125 65.6328125  73.4130859375 62.3330078125  75.0478515625 58.5185546875  C 76.6826171875 54.7041015625  77.5 50.6979166666667  77.5 46.5  C 77.5 42.3020833333333  76.6826171875 38.2958984375  75.0478515625 34.4814453125  C 73.4130859375 30.6669921875  71.203125 27.3671875  68.41796875 24.58203125  C 65.6328125 21.796875  62.3330078125 19.5869140625  58.5185546875 17.9521484375  C 54.7041015625 16.3173828125  50.6979166666667 15.5  46.5 15.5  C 42.5442708333333 15.5  38.75 16.2164713541667  35.1171875 17.6494140625  C 31.484375 19.0823567708333  28.2552083333333 21.130859375  25.4296875 23.794921875  L 33.724609375 32.150390625  C 34.9759114583333 33.361328125  35.2584635416667 34.75390625  34.572265625 36.328125  C 33.8860677083333 37.9427083333333  32.6953125 38.75  31 39  L 3.875 39  C 2.82552083333333 38.75  1.91731770833333 38.3665364583333  1.150390625 37.599609375  C 0.383463541666667 36.8326822916667  0 35.9244791666667  0 34.875  L 0 7.75  C 0 6.0546875  0.807291666666667 4.86393229166667  2.421875 4.177734375  C 3.99609375 3.49153645833332  5.388671875 3.77408854166667  6.599609375 5.025390625  L 14.470703125 12.8359375  C 18.7897135416667 8.75911458333333  23.7242838541667 5.6005859375  29.2744140625 3.3603515625  C 34.8245442708333 1.1201171875  40.56640625 0  46.5 0  C 52.796875 0  58.8111979166667 1.23111979166667  64.54296875 3.693359375  C 70.2747395833333 6.15559895833333  75.2194010416667 9.46549479166666  79.376953125 13.623046875  C 83.5345052083333 17.7805989583333  86.8444010416667 22.7252604166667  89.306640625 28.45703125  Z M 53.705078125 27.669921875  C 54.068359375 28.033203125  54.25 28.4973958333333  54 29.0625  L 54 56.1875  C 54.25 56.7526041666667  54.068359375 57.216796875  53.705078125 57.580078125  C 53.341796875 57.943359375  52.8776041666667 58.125  52.3125 58  L 32.9375 58  C 32.3723958333333 58.125  31.908203125 57.943359375  31.544921875 57.580078125  C 31.181640625 57.216796875  31 56.7526041666667  31 56.1875  L 31 52.3125  C 31 51.7473958333333  31.181640625 51.283203125  31.544921875 50.919921875  C 31.908203125 50.556640625  32.3723958333333 50.375  32.9375 50  L 46 50  L 46 29.0625  C 46.5 28.4973958333333  46.681640625 28.033203125  47.044921875 27.669921875  C 47.408203125 27.306640625  47.8723958333333 27.125  48.4375 27.125  L 52.3125 27.125  C 52.8776041666667 27.125  53.341796875 27.306640625  53.705078125 27.669921875  Z " fill-rule="nonzero" fill="#ffffff" stroke="none" transform="matrix(1 0 0 1 55 544 )" />
  </g>
</svg>