<?xml version="1.0" encoding="utf-8"?>
<svg version="1.1" xmlns:xlink="http://www.w3.org/1999/xlink" width="35px" height="35px" xmlns="http://www.w3.org/2000/svg">
  <g transform="matrix(1 0 0 1 -325 -629 )">
    <path d="M 17.8631647211414 16.4772727272727  L 33.9785992217899 0.34090909090909  C 34.2661046260268 0.0530303030303014  34.5082144401211 -0.0454545454545474  34.7049286640726 0.0454545454545435  C 34.9016428880242 0.136363636363634  35 0.378787878787876  35 0.772727272727271  L 35 34.2272727272727  C 35 34.6212121212121  34.9016428880242 34.8636363636364  34.7049286640726 34.9545454545455  C 34.5082144401211 35.0454545454545  34.2661046260268 34.9469696969697  33.9785992217899 34.6590909090909  L 17.8631647211414 18.5227272727273  C 17.7269779507134 18.3863636363636  17.6286208387376 18.2424242424242  17 18.0909090909091  L 17 34.2272727272727  C 17.568093385214 34.6212121212121  17.4697362732382 34.8636363636364  17.2730220492866 34.9545454545455  C 17.0763078253351 35.0454545454545  16.8341980112408 34.9469696969697  16.5466926070039 34.6590909090909  L 0.431258106355383 18.5227272727273  C 0.143752702118461 18.2348484848485  0 17.8939393939394  0 17.5  C 0 17.1060606060606  0.143752702118461 16.7651515151515  0.431258106355383 16.4772727272727  L 16.5466926070039 0.34090909090909  C 16.8341980112408 0.0530303030303014  17.0763078253351 -0.0454545454545474  17.2730220492866 0.0454545454545435  C 17.4697362732382 0.136363636363634  17.568093385214 0.378787878787876  17 0.772727272727271  L 17 16.9090909090909  C 17.6286208387376 16.7575757575758  17.7269779507134 16.6136363636364  17.8631647211414 16.4772727272727  Z " fill-rule="nonzero" fill="#000000" stroke="none" transform="matrix(1 0 0 1 325 629 )" />
  </g>
</svg>