<?xml version="1.0" encoding="utf-8"?>
<svg version="1.1" xmlns:xlink="http://www.w3.org/1999/xlink" width="42px" height="37px" xmlns="http://www.w3.org/2000/svg">
  <g transform="matrix(1 0 0 1 -41 -566 )">
    <path d="M 19.5874439461883 27.75  L 20.9058295964126 27.75  L 23.6367713004484 24.7017045454545  L 20.0582959641256 20.7073863636364  L 17.3273542600897 23.7556818181818  L 17.3273542600897 25.2272727272727  L 19.5874439461883 25.2272727272727  L 19.5874439461883 27.75  Z M 31.2410313901345 9.69673295454546  C 31.5078475336323 9.39891098484848  31.5156950672646 9.10984848484848  31.2645739910314 8.82954545454546  C 31.0134529147982 8.54924242424242  30.7544843049327 8.55800189393939  30.487668161435 8.85582386363637  L 22.2477578475336 18.0532670454545  C 21.9809417040359 18.3510890151515  21.9730941704036 18.6401515151515  22.2242152466368 18.9204545454545  C 22.47533632287 19.2007575757576  22.7343049327354 19.1919981060606  23.0011210762332 18.8941761363636  L 31.2410313901345 9.69673295454546  Z M 32.6771300448431 23.6768465909091  C 32.9910313901345 23.8169981060606  33.1479820627803 24.0710227272727  33.1479820627803 24.4389204545455  L 33.1479820627803 29.4318181818182  C 33.1479820627803 31.516571969697  32.484865470852 33.2991240530303  31.1586322869955 34.7794744318182  C 29.832399103139 36.2598248106061  28.2354260089686 37  26.3677130044843 37  L 6.78026905829596 37  C 4.91255605381166 37  3.31558295964126 36.2598248106061  1.98934977578475 34.7794744318182  C 0.663116591928251 33.2991240530303  0 31.516571969697  0 29.4318181818182  L 0 7.56818181818182  C 0 5.48342803030303  0.663116591928251 3.7008759469697  1.98934977578475 2.22052556818182  C 3.31558295964126 0.740175189393936  4.91255605381166 0  6.78026905829596 0  L 26.3677130044843 0  C 27.3565022421525 0  28.27466367713 0.21898674242424  29.122197309417 0.656960227272725  C 29.3576233183856 0.779592803030301  29.4988789237668 0.981060606060605  29.5459641255605 1.26136363636364  C 29.5930493273543 1.55918560606061  29.5224215246637 1.81321022727273  29.3340807174888 2.0234375  L 28.1804932735426 3.31107954545455  C 27.9607623318386 3.5563446969697  27.7096412556054 3.62642045454546  27.4271300448431 3.52130681818182  C 27.0661434977578 3.41619318181818  26.7130044843049 3.36363636363636  26.3677130044843 4  L 6.78026905829596 4  C 5.74439461883408 3.36363636363636  4.85762331838565 3.77533143939394  4.11995515695067 4.59872159090909  C 3.3822869955157 5.42211174242424  3.01345291479821 6.41193181818182  3 7.56818181818182  L 3 29.4318181818182  C 3.01345291479821 30.5880681818182  3.3822869955157 31.5778882575758  4.11995515695067 32.4012784090909  C 4.85762331838565 33.2246685606061  5.74439461883408 33.6363636363636  6.78026905829596 33  L 26.3677130044843 33  C 27.4035874439462 33.6363636363636  28.2903587443946 33.2246685606061  29.0280269058296 32.4012784090909  C 29.7656950672646 31.5778882575758  30.1345291479821 30.5880681818182  30.1345291479821 29.4318181818182  L 30.1345291479821 26.1207386363636  C 30.1345291479821 25.8929924242424  30.2051569506726 25.7002840909091  30.3464125560538 25.5426136363636  L 31.8531390134529 23.8607954545455  C 32.0885650224215 23.5980113636364  32.3632286995516 23.5366950757576  32.6771300448431 23.6768465909091  Z M 15.067264573991 22.7045454545455  L 30.8878923766816 5.04545454545455  L 37.6681614349776 12.6136363636364  L 21.847533632287 30.2727272727273  L 15.067264573991 30.2727272727273  L 15.067264573991 22.7045454545455  Z M 42 6.72727272727273  C 42 7.4280303030303  41.780269058296 8.02367424242424  41.3408071748879 8.51420454545455  L 39.1748878923767 10.9318181818182  L 32.3946188340807 3.36363636363636  L 34.5605381165919 0.946022727272725  C 35 0.455492424242421  35.5336322869955 0.210227272727275  36.1614349775785 0.210227272727275  C 36.7892376681614 0.210227272727275  37.322869955157 0.455492424242421  37.762331838565 0.946022727272725  L 41.3408071748879 4.94034090909091  C 41.780269058296 5.43087121212121  42 6.02651515151515  42 6.72727272727273  Z " fill-rule="nonzero" fill="#ffffff" stroke="none" transform="matrix(1 0 0 1 41 566 )" />
  </g>
</svg>