<?xml version="1.0" encoding="utf-8"?>
<svg version="1.1" xmlns:xlink="http://www.w3.org/1999/xlink" width="40px" height="40px" xmlns="http://www.w3.org/2000/svg">
  <g transform="matrix(1 0 0 1 -207 -565 )">
    <path d="M 39.2045454545455 15.3409090909091  C 39.7348484848485 15.8712121212121  40 16.5151515151515  40 17.2727272727273  L 40 22.7272727272727  C 40 23.4848484848485  39.7348484848485 24.1287878787879  39.2045454545455 24.6590909090909  C 38.6742424242424 25.1893939393939  38.030303030303 25.4545454545455  37.2727272727273 25  L 25 25  L 25 37.2727272727273  C 25.4545454545455 38.030303030303  25.1893939393939 38.6742424242424  24.6590909090909 39.2045454545455  C 24.1287878787879 39.7348484848485  23.4848484848485 40  22.7272727272727 40  L 17.2727272727273 40  C 16.5151515151515 40  15.8712121212121 39.7348484848485  15.3409090909091 39.2045454545455  C 14.8106060606061 38.6742424242424  14.5454545454545 38.030303030303  15 37.2727272727273  L 15 25  L 2.72727272727273 25  C 1.96969696969697 25.4545454545455  1.32575757575758 25.1893939393939  0.795454545454545 24.6590909090909  C 0.265151515151515 24.1287878787879  0 23.4848484848485  0 22.7272727272727  L 0 17.2727272727273  C 0 16.5151515151515  0.265151515151515 15.8712121212121  0.795454545454545 15.3409090909091  C 1.32575757575758 14.8106060606061  1.96969696969697 14.5454545454545  2.72727272727273 15  L 15 15  L 15 2.72727272727273  C 14.5454545454545 1.96969696969697  14.8106060606061 1.32575757575757  15.3409090909091 0.795454545454546  C 15.8712121212121 0.265151515151514  16.5151515151515 0  17.2727272727273 0  L 22.7272727272727 0  C 23.4848484848485 0  24.1287878787879 0.265151515151514  24.6590909090909 0.795454545454546  C 25.1893939393939 1.32575757575757  25.4545454545455 1.96969696969697  25 2.72727272727273  L 25 15  L 37.2727272727273 15  C 38.030303030303 14.5454545454545  38.6742424242424 14.8106060606061  39.2045454545455 15.3409090909091  Z " fill-rule="nonzero" fill="#ffffff" stroke="none" transform="matrix(1 0 0 1 207 565 )" />
  </g>
</svg>