<?xml version="1.0" encoding="utf-8"?>
<svg version="1.1" xmlns:xlink="http://www.w3.org/1999/xlink" width="35px" height="35px" xmlns="http://www.w3.org/2000/svg">
  <g transform="matrix(1 0 0 1 -46 -221 )">
    <path d="M 16 2.69230769230769  L 16 18.7199519230769  L 26.6145833333333 30.2043269230769  C 25.1832561728395 31.71875  23.5122492283951 32.8966346153846  21.6015625 33.7379807692308  C 19.6908757716049 34.5793269230769  17.6755401234568 35  15.5555555555556 35  C 12.7334104938272 35  10.1306905864198 34.2778445512821  7.74739583333333 32.8335336538462  C 5.36410108024691 31.3892227564103  3.47704475308642 29.4295873397436  2.08622685185185 26.9546274038462  C 0.695408950617284 24.4796674679487  0 21.7768429487179  0 18.8461538461538  C 0 15.9154647435897  0.695408950617284 13.212640224359  2.08622685185185 10.7376802884615  C 3.47704475308642 8.2627203525641  5.36410108024691 6.30308493589743  7.74739583333333 4.85877403846154  C 10.1306905864198 3.41446314102564  12.7334104938272 2.69230769230769  16 2.69230769230769  Z M 30.3819444444444 30.3305288461538  L 19.3431712962963 18.8461538461538  L 35 18.8461538461538  C 35 21.0476762820513  34.5949074074074 23.1405248397436  33.7847222222222 25.1246995192308  C 32.974537037037 27.1088741987179  31.8402777777778 28.8441506410256  30.3819444444444 30.3305288461538  Z M 31.6174768518519 8.04537259615384  C 33.0082947530864 10.5203325320513  33.7037037037037 13.223157051282  33.7037037037037 16.1538461538462  L 18 16.1538461538462  L 18 0  C 20.9702932098765 0  23.573013117284 0.722155448717951  25.9563078703704 2.16646634615385  C 28.3396026234568 3.61077724358974  30.2266589506173 5.57041266025641  31.6174768518519 8.04537259615384  Z " fill-rule="nonzero" fill="#000000" stroke="none" transform="matrix(1 0 0 1 46 221 )" />
  </g>
</svg>