<?xml version="1.0" encoding="utf-8"?>
<svg version="1.1" xmlns:xlink="http://www.w3.org/1999/xlink" width="30px" height="35px" xmlns="http://www.w3.org/2000/svg">
  <g transform="matrix(1 0 0 1 -48 -90 )">
    <path d="M 5.06930693069307 32.042904290429  L 7.18811881188119 32.042904290429  L 8.99009900990099 29.9405940594059  L 4.33663366336634 24.5115511551155  L 2.53465346534653 26.6138613861386  L 2.53465346534653 29.0858085808581  L 5.06930693069307 29.0858085808581  L 5.06930693069307 32.042904290429  Z M 17.4059405940594 10.996699669967  C 17.4983498349835 10.8888888888889  17.5445544554455 10.7579757975798  17.5445544554455 10.6039603960396  C 17.5445544554455 10.2651265126513  17.3993399339934 10.0957095709571  17.1089108910891 10.0957095709571  C 16.976897689769 10.0957095709571  16.8646864686469 10.1496149614961  16.7722772277228 10.2574257425743  L 6.03960396039604 22.7788778877888  C 5.94719471947195 22.8866886688669  5.9009900990099 23.017601760176  5.9009900990099 23.1716171617162  C 5.9009900990099 23.5104510451045  6.04620462046205 23.6798679867987  6.33663366336634 23.6798679867987  C 6.46864686468647 23.6798679867987  6.58085808580858 23.6259625962596  6.67326732673267 23.5181518151815  L 17.4059405940594 10.996699669967  Z M 0 25.3894389438944  L 16.4752475247525 6.16831683168317  L 24.7128712871287 15.7788778877888  L 8.23762376237624 35  L 0 35  L 0 25.3894389438944  Z M 29.2673267326733 6.28382838283828  C 29.7557755775578 6.88448844884489  30 7.58525852585259  30 8.38613861386139  C 30 9.2024202420242  29.7557755775578 9.89548954895489  29.2673267326733 10.4653465346535  L 25.980198019802 14.3003300330033  L 17.7425742574257 4.68976897689769  L 21.029702970297 0.877887788778876  C 21.5049504950495 0.292629262926289  22.0990099009901 0  22.8118811881188 0  C 23.5115511551155 0  24.1122112211221 0.292629262926289  24.6138613861386 0.877887788778876  L 29.2673267326733 6.28382838283828  Z " fill-rule="nonzero" fill="#000000" stroke="none" transform="matrix(1 0 0 1 48 90 )" />
  </g>
</svg>