<?xml version="1.0" encoding="utf-8"?>
<svg version="1.1" xmlns:xlink="http://www.w3.org/1999/xlink" width="35px" height="35px" xmlns="http://www.w3.org/2000/svg">
  <g transform="matrix(1 0 0 1 -46 -156 )">
    <path d="M 2.69230769230769 26.875  L 2.69230769230769 32.5  L 8.75 32.5  L 8.75 26.875  L 2.69230769230769 26.875  Z M 10.0961538461538 26.875  L 10.0961538461538 32.5  L 16.8269230769231 32.5  L 16.8269230769231 26.875  L 10.0961538461538 26.875  Z M 2.69230769230769 19.375  L 2.69230769230769 25.625  L 8.75 25.625  L 8.75 19.375  L 2.69230769230769 19.375  Z M 10.0961538461538 19.375  L 10.0961538461538 25.625  L 16.8269230769231 25.625  L 16.8269230769231 19.375  L 10.0961538461538 19.375  Z M 2.69230769230769 12.5  L 2.69230769230769 18.125  L 8.75 18.125  L 8.75 12.5  L 2.69230769230769 12.5  Z M 18.1730769230769 26.875  L 18.1730769230769 32.5  L 24.9038461538462 32.5  L 24.9038461538462 26.875  L 18.1730769230769 26.875  Z M 10.0961538461538 12.5  L 10.0961538461538 18.125  L 16.8269230769231 18.125  L 16.8269230769231 12.5  L 10.0961538461538 12.5  Z M 26.25 26.875  L 26.25 32.5  L 32.3076923076923 32.5  L 32.3076923076923 26.875  L 26.25 26.875  Z M 18.1730769230769 19.375  L 18.1730769230769 25.625  L 24.9038461538462 25.625  L 24.9038461538462 19.375  L 18.1730769230769 19.375  Z M 10.5694110576923 9.189453125  C 10.7026241987179 9.06575520833333  10.7692307692308 8.91927083333333  10.7692307692308 8.75  L 10.7692307692308 3.125  C 10.7692307692308 2.95572916666667  10.7026241987179 2.80924479166667  10.5694110576923 2.685546875  C 10.4361979166667 2.56184895833333  10.2784455128205 2.5  10.0961538461538 2.5  L 8.75 2.5  C 8.56770833333333 2.5  8.40995592948718 2.56184895833333  8.27674278846154 2.685546875  C 8.1435296474359 2.80924479166667  8.07692307692308 2.95572916666667  8.07692307692308 3.125  L 8.07692307692308 8.75  C 8.07692307692308 8.91927083333333  8.1435296474359 9.06575520833333  8.27674278846154 9.189453125  C 8.40995592948718 9.31315104166667  8.56770833333333 9.375  8.75 9.375  L 10.0961538461538 9.375  C 10.2784455128205 9.375  10.4361979166667 9.31315104166667  10.5694110576923 9.189453125  Z M 26.25 19.375  L 26.25 25.625  L 32.3076923076923 25.625  L 32.3076923076923 19.375  L 26.25 19.375  Z M 18.1730769230769 12.5  L 18.1730769230769 18.125  L 24.9038461538462 18.125  L 24.9038461538462 12.5  L 18.1730769230769 12.5  Z M 26.25 12.5  L 26.25 18.125  L 32.3076923076923 18.125  L 32.3076923076923 12.5  L 26.25 12.5  Z M 26.7232572115385 9.189453125  C 26.8564703525641 9.06575520833333  26.9230769230769 8.91927083333333  26.9230769230769 8.75  L 26.9230769230769 3.125  C 26.9230769230769 2.95572916666667  26.8564703525641 2.80924479166667  26.7232572115385 2.685546875  C 26.5900440705128 2.56184895833333  26.4322916666667 2.5  26.25 2.5  L 24.9038461538462 2.5  C 24.7215544871795 2.5  24.5638020833333 2.56184895833333  24.4305889423077 2.685546875  C 24.2973758012821 2.80924479166667  24.2307692307692 2.95572916666667  24.2307692307692 3.125  L 24.2307692307692 8.75  C 24.2307692307692 8.91927083333333  24.2973758012821 9.06575520833333  24.4305889423077 9.189453125  C 24.5638020833333 9.31315104166667  24.7215544871795 9.375  24.9038461538462 9.375  L 26.25 9.375  C 26.4322916666667 9.375  26.5900440705128 9.31315104166667  26.7232572115385 9.189453125  Z M 34.2007211538462 5.7421875  C 34.7335737179487 6.23697916666667  35 6.82291666666667  35 7.5  L 35 32.5  C 35 33.1770833333333  34.7335737179487 33.7630208333333  34.2007211538462 34.2578125  C 33.6678685897436 34.7526041666667  33.036858974359 35  32.3076923076923 35  L 2.69230769230769 35  C 1.96314102564103 35  1.33213141025641 34.7526041666667  0.799278846153846 34.2578125  C 0.266426282051282 33.7630208333333  0 33.1770833333333  0 32.5  L 0 7.5  C 0 6.82291666666667  0.266426282051282 6.23697916666667  0.799278846153846 5.7421875  C 1.33213141025641 5.24739583333333  1.96314102564103 5  2.69230769230769 5  L 5.38461538461539 5  L 5.38461538461539 3.125  C 5.38461538461539 2.265625  5.71414262820513 1.52994791666666  6.37319711538462 0.917968750000001  C 7.0322516025641 0.305989583333334  7.82451923076923 0  8.75 0  L 10.0961538461538 0  C 11.0216346153846 0  11.8139022435897 0.305989583333334  12.4729567307692 0.917968750000001  C 13.1320112179487 1.52994791666666  13.4615384615385 2.265625  13.4615384615385 3.125  L 13.4615384615385 5  L 21.5384615384615 5  L 21.5384615384615 3.125  C 21.5384615384615 2.265625  21.8679887820513 1.52994791666666  22.5270432692308 0.917968750000001  C 23.1860977564103 0.305989583333334  23.9783653846154 0  24.9038461538462 0  L 26.25 0  C 27.1754807692308 0  27.9677483974359 0.305989583333334  28.6268028846154 0.917968750000001  C 29.2858573717949 1.52994791666666  29.6153846153846 2.265625  29.6153846153846 3.125  L 29.6153846153846 5  L 32.3076923076923 5  C 33.036858974359 5  33.6678685897436 5.24739583333333  34.2007211538462 5.7421875  Z " fill-rule="nonzero" fill="#000000" stroke="none" transform="matrix(1 0 0 1 46 156 )" />
  </g>
</svg>