<?xml version="1.0" encoding="utf-8"?>
<svg version="1.1" xmlns:xlink="http://www.w3.org/1999/xlink" width="56px" height="60px" xmlns="http://www.w3.org/2000/svg">
  <g transform="matrix(1 0 0 1 -37 -554 )">
    <path d="M 43.3854166666667 25  C 43.3854166666667 25.6770833333333  43.1545138888889 26.2630208333333  42.6927083333333 26.7578125  L 27.3072916666667 43.2421875  C 26.8454861111111 43.7369791666667  26.2986111111111 43.984375  25.6666666666667 43.984375  C 25.0347222222222 43.984375  24.4878472222222 43.7369791666667  24.0260416666667 43.2421875  L 13.3072916666667 31.7578125  C 12.8454861111111 31.2630208333333  12.6145833333333 30.6770833333333  12.6145833333333 30  C 12.6145833333333 29.3229166666667  12.8454861111111 28.7369791666667  13.3072916666667 28.2421875  L 17.0260416666667 24.2578125  C 17.4878472222222 23.7630208333333  18.0347222222222 23.515625  18.6666666666667 23.515625  C 19.2986111111111 23.515625  19.8454861111111 23.7630208333333  20.3072916666667 24.2578125  L 25.6666666666667 30  L 35.6927083333333 19.2578125  C 36.1545138888889 18.7630208333333  36.7013888888889 18.515625  37.3333333333333 18.515625  C 37.9652777777778 18.515625  38.5121527777778 18.7630208333333  38.9739583333333 19.2578125  L 42.6927083333333 23.2421875  C 43.1545138888889 23.7369791666667  43.3854166666667 24.3229166666667  43.3854166666667 25  Z M 45.171875 40.6640625  C 46.9461805555556 37.4088541666667  47.8333333333333 33.8541666666667  47.8333333333333 30  C 47.8333333333333 26.1458333333333  46.9461805555556 22.5911458333333  45.171875 19.3359375  C 43.3975694444445 16.0807291666667  40.9913194444445 13.5026041666667  37.953125 11.6015625  C 34.9149305555556 9.70052083333333  31.5972222222222 8.75  28 8.75  C 24.4027777777778 8.75  21.0850694444444 9.70052083333333  18.046875 11.6015625  C 15.0086805555556 13.5026041666667  12.6024305555556 16.0807291666667  10.828125 19.3359375  C 9.05381944444444 22.5911458333333  8.16666666666667 26.1458333333333  8.16666666666667 30  C 8.16666666666667 33.8541666666667  9.05381944444444 37.4088541666667  10.828125 40.6640625  C 12.6024305555556 43.9192708333333  15.0086805555556 46.4973958333333  18.046875 48.3984375  C 21.0850694444444 50.2994791666667  24.4027777777778 51.25  28 51.25  C 31.5972222222222 51.25  34.9149305555556 50.2994791666667  37.953125 48.3984375  C 40.9913194444445 46.4973958333333  43.3975694444445 43.9192708333333  45.171875 40.6640625  Z M 52.2447916666667 14.94140625  C 54.7482638888889 19.5377604166667  56 24.5572916666667  56 30  C 56 35.4427083333333  54.7482638888889 40.4622395833333  52.2447916666667 45.05859375  C 49.7413194444445 49.6549479166667  46.3446180555556 53.2942708333333  42.0546875 55.9765625  C 37.7647569444445 58.6588541666667  33.0798611111111 60  28 60  C 22.9201388888889 60  18.2352430555556 58.6588541666667  13.9453125 55.9765625  C 9.65538194444444 53.2942708333333  6.25868055555556 49.6549479166667  3.75520833333333 45.05859375  C 1.25173611111111 40.4622395833333  0 35.4427083333333  0 30  C 0 24.5572916666667  1.25173611111111 19.5377604166667  3.75520833333333 14.94140625  C 6.25868055555556 10.3450520833333  9.65538194444444 6.70572916666666  13.9453125 4.0234375  C 18.2352430555556 1.34114583333333  22.9201388888889 0  28 0  C 33.0798611111111 0  37.7647569444445 1.34114583333333  42.0546875 4.0234375  C 46.3446180555556 6.70572916666666  49.7413194444445 10.3450520833333  52.2447916666667 14.94140625  Z " fill-rule="nonzero" fill="#ffffff" stroke="none" transform="matrix(1 0 0 1 37 554 )" />
  </g>
</svg>