<?xml version="1.0" encoding="utf-8"?>
<svg version="1.1" xmlns:xlink="http://www.w3.org/1999/xlink" width="50px" height="50px" xmlns="http://www.w3.org/2000/svg">
  <defs>
    <mask fill="white" id="clip35">
      <path d="M 22.6236979166667 35.1236979166667  C 22.8190104166667 34.9283854166667  22.9166666666667 34.6788194444444  23 34.375  L 23 15.625  C 22.9166666666667 15.3211805555556  22.8190104166667 15.0716145833333  22.6236979166667 14.8763020833333  C 22.4283854166667 14.6809895833333  22.1788194444444 14.5833333333333  21.875 14.5833333333333  L 13.5416666666667 14.5833333333333  C 13.2378472222222 14.5833333333333  12.98828125 14.6809895833333  12.79296875 14.8763020833333  C 12.59765625 15.0716145833333  12.5 15.3211805555556  13 15.625  L 13 34.375  C 12.5 34.6788194444444  12.59765625 34.9283854166667  12.79296875 35.1236979166667  C 12.98828125 35.3190104166667  13.2378472222222 35.4166666666667  13.5416666666667 35.4166666666667  L 21.875 35.4166666666667  C 22.1788194444444 35.4166666666667  22.4283854166667 35.3190104166667  22.6236979166667 35.1236979166667  Z M 37.20703125 35.1236979166667  C 37.40234375 34.9283854166667  37.5 34.6788194444444  37 34.375  L 37 15.625  C 37.5 15.3211805555556  37.40234375 15.0716145833333  37.20703125 14.8763020833333  C 37.01171875 14.6809895833333  36.7621527777778 14.5833333333333  36.4583333333333 14.5833333333333  L 28.125 14.5833333333333  C 27.8211805555556 14.5833333333333  27.5716145833333 14.6809895833333  27.3763020833333 14.8763020833333  C 27.1809895833333 15.0716145833333  27.0833333333333 15.3211805555556  27 15.625  L 27 34.375  C 27.0833333333333 34.6788194444444  27.1809895833333 34.9283854166667  27.3763020833333 35.1236979166667  C 27.5716145833333 35.3190104166667  27.8211805555556 35.4166666666667  28.125 35.4166666666667  L 36.4583333333333 35.4166666666667  C 36.7621527777778 35.4166666666667  37.01171875 35.3190104166667  37.20703125 35.1236979166667  Z M 46.6471354166667 12.451171875  C 48.8823784722222 16.2814670138889  50 20.4644097222222  50 25  C 50 29.5355902777778  48.8823784722222 33.7185329861111  46.6471354166667 37.548828125  C 44.4118923611111 41.3791232638889  41.3791232638889 44.4118923611111  37.548828125 46.6471354166667  C 33.7185329861111 48.8823784722222  29.5355902777778 50  25 50  C 20.4644097222222 50  16.2814670138889 48.8823784722222  12.451171875 46.6471354166667  C 8.62087673611111 44.4118923611111  5.58810763888889 41.3791232638889  3.35286458333333 37.548828125  C 1.11762152777778 33.7185329861111  0 29.5355902777778  0 25  C 0 20.4644097222222  1.11762152777778 16.2814670138889  3.35286458333333 12.451171875  C 5.58810763888889 8.62087673611111  8.62087673611111 5.58810763888888  12.451171875 3.35286458333333  C 16.2814670138889 1.11762152777777  20.4644097222222 0  25 0  C 29.5355902777778 0  33.7185329861111 1.11762152777777  37.548828125 3.35286458333333  C 41.3791232638889 5.58810763888888  44.4118923611111 8.62087673611111  46.6471354166667 12.451171875  Z " fill-rule="evenodd" />
    </mask>
  </defs>
  <g transform="matrix(1 0 0 1 -315 -606 )">
    <path d="M 22.6236979166667 35.1236979166667  C 22.8190104166667 34.9283854166667  22.9166666666667 34.6788194444444  23 34.375  L 23 15.625  C 22.9166666666667 15.3211805555556  22.8190104166667 15.0716145833333  22.6236979166667 14.8763020833333  C 22.4283854166667 14.6809895833333  22.1788194444444 14.5833333333333  21.875 14.5833333333333  L 13.5416666666667 14.5833333333333  C 13.2378472222222 14.5833333333333  12.98828125 14.6809895833333  12.79296875 14.8763020833333  C 12.59765625 15.0716145833333  12.5 15.3211805555556  13 15.625  L 13 34.375  C 12.5 34.6788194444444  12.59765625 34.9283854166667  12.79296875 35.1236979166667  C 12.98828125 35.3190104166667  13.2378472222222 35.4166666666667  13.5416666666667 35.4166666666667  L 21.875 35.4166666666667  C 22.1788194444444 35.4166666666667  22.4283854166667 35.3190104166667  22.6236979166667 35.1236979166667  Z M 37.20703125 35.1236979166667  C 37.40234375 34.9283854166667  37.5 34.6788194444444  37 34.375  L 37 15.625  C 37.5 15.3211805555556  37.40234375 15.0716145833333  37.20703125 14.8763020833333  C 37.01171875 14.6809895833333  36.7621527777778 14.5833333333333  36.4583333333333 14.5833333333333  L 28.125 14.5833333333333  C 27.8211805555556 14.5833333333333  27.5716145833333 14.6809895833333  27.3763020833333 14.8763020833333  C 27.1809895833333 15.0716145833333  27.0833333333333 15.3211805555556  27 15.625  L 27 34.375  C 27.0833333333333 34.6788194444444  27.1809895833333 34.9283854166667  27.3763020833333 35.1236979166667  C 27.5716145833333 35.3190104166667  27.8211805555556 35.4166666666667  28.125 35.4166666666667  L 36.4583333333333 35.4166666666667  C 36.7621527777778 35.4166666666667  37.01171875 35.3190104166667  37.20703125 35.1236979166667  Z M 46.6471354166667 12.451171875  C 48.8823784722222 16.2814670138889  50 20.4644097222222  50 25  C 50 29.5355902777778  48.8823784722222 33.7185329861111  46.6471354166667 37.548828125  C 44.4118923611111 41.3791232638889  41.3791232638889 44.4118923611111  37.548828125 46.6471354166667  C 33.7185329861111 48.8823784722222  29.5355902777778 50  25 50  C 20.4644097222222 50  16.2814670138889 48.8823784722222  12.451171875 46.6471354166667  C 8.62087673611111 44.4118923611111  5.58810763888889 41.3791232638889  3.35286458333333 37.548828125  C 1.11762152777778 33.7185329861111  0 29.5355902777778  0 25  C 0 20.4644097222222  1.11762152777778 16.2814670138889  3.35286458333333 12.451171875  C 5.58810763888889 8.62087673611111  8.62087673611111 5.58810763888888  12.451171875 3.35286458333333  C 16.2814670138889 1.11762152777777  20.4644097222222 0  25 0  C 29.5355902777778 0  33.7185329861111 1.11762152777777  37.548828125 3.35286458333333  C 41.3791232638889 5.58810763888888  44.4118923611111 8.62087673611111  46.6471354166667 12.451171875  Z " fill-rule="nonzero" fill="#70b603" stroke="none" transform="matrix(1 0 0 1 315 606 )" />
    <path d="M 22.6236979166667 35.1236979166667  C 22.8190104166667 34.9283854166667  22.9166666666667 34.6788194444444  23 34.375  L 23 15.625  C 22.9166666666667 15.3211805555556  22.8190104166667 15.0716145833333  22.6236979166667 14.8763020833333  C 22.4283854166667 14.6809895833333  22.1788194444444 14.5833333333333  21.875 14.5833333333333  L 13.5416666666667 14.5833333333333  C 13.2378472222222 14.5833333333333  12.98828125 14.6809895833333  12.79296875 14.8763020833333  C 12.59765625 15.0716145833333  12.5 15.3211805555556  13 15.625  L 13 34.375  C 12.5 34.6788194444444  12.59765625 34.9283854166667  12.79296875 35.1236979166667  C 12.98828125 35.3190104166667  13.2378472222222 35.4166666666667  13.5416666666667 35.4166666666667  L 21.875 35.4166666666667  C 22.1788194444444 35.4166666666667  22.4283854166667 35.3190104166667  22.6236979166667 35.1236979166667  Z " stroke-width="4" stroke="#000000" fill="none" transform="matrix(1 0 0 1 315 606 )" mask="url(#clip35)" />
    <path d="M 37.20703125 35.1236979166667  C 37.40234375 34.9283854166667  37.5 34.6788194444444  37 34.375  L 37 15.625  C 37.5 15.3211805555556  37.40234375 15.0716145833333  37.20703125 14.8763020833333  C 37.01171875 14.6809895833333  36.7621527777778 14.5833333333333  36.4583333333333 14.5833333333333  L 28.125 14.5833333333333  C 27.8211805555556 14.5833333333333  27.5716145833333 14.6809895833333  27.3763020833333 14.8763020833333  C 27.1809895833333 15.0716145833333  27.0833333333333 15.3211805555556  27 15.625  L 27 34.375  C 27.0833333333333 34.6788194444444  27.1809895833333 34.9283854166667  27.3763020833333 35.1236979166667  C 27.5716145833333 35.3190104166667  27.8211805555556 35.4166666666667  28.125 35.4166666666667  L 36.4583333333333 35.4166666666667  C 36.7621527777778 35.4166666666667  37.01171875 35.3190104166667  37.20703125 35.1236979166667  Z " stroke-width="4" stroke="#000000" fill="none" transform="matrix(1 0 0 1 315 606 )" mask="url(#clip35)" />
    <path d="M 46.6471354166667 12.451171875  C 48.8823784722222 16.2814670138889  50 20.4644097222222  50 25  C 50 29.5355902777778  48.8823784722222 33.7185329861111  46.6471354166667 37.548828125  C 44.4118923611111 41.3791232638889  41.3791232638889 44.4118923611111  37.548828125 46.6471354166667  C 33.7185329861111 48.8823784722222  29.5355902777778 50  25 50  C 20.4644097222222 50  16.2814670138889 48.8823784722222  12.451171875 46.6471354166667  C 8.62087673611111 44.4118923611111  5.58810763888889 41.3791232638889  3.35286458333333 37.548828125  C 1.11762152777778 33.7185329861111  0 29.5355902777778  0 25  C 0 20.4644097222222  1.11762152777778 16.2814670138889  3.35286458333333 12.451171875  C 5.58810763888889 8.62087673611111  8.62087673611111 5.58810763888888  12.451171875 3.35286458333333  C 16.2814670138889 1.11762152777777  20.4644097222222 0  25 0  C 29.5355902777778 0  33.7185329861111 1.11762152777777  37.548828125 3.35286458333333  C 41.3791232638889 5.58810763888888  44.4118923611111 8.62087673611111  46.6471354166667 12.451171875  Z " stroke-width="4" stroke="#000000" fill="none" transform="matrix(1 0 0 1 315 606 )" mask="url(#clip35)" />
  </g>
</svg>