<?xml version="1.0" encoding="utf-8"?>
<svg version="1.1" xmlns:xlink="http://www.w3.org/1999/xlink" width="19px" height="36px" xmlns="http://www.w3.org/2000/svg">
  <defs>
    <mask fill="white" id="clip40">
      <path d="M 18.0267260579065 9.15144230769231  C 18.2947290274684 9.15144230769231  18.5345211581292 9.25961538461538  18.7461024498886 9.47596153846154  C 19 9.76442307692308  19.0493689680772 10.0817307692308  18.8942093541203 10.4278846153846  L 7.46881959910913 35.4591346153846  C 7.28544914625093 35.8197115384615  6.98923533778768 36  6.58017817371938 36  C 6.52375649591685 36  6.42501855976244 35.9855769230769  6.28396436525613 35.9567307692308  C 6.0441722345954 35.8846153846154  5.86432813659985 35.7475961538462  5.74443207126949 35.5456730769231  C 5.62453600593912 35.34375  5.59279881217521 35.1274038461538  5.64922048997773 34.8966346153846  L 9.8173719376392 17.4158653846154  L 1.2271714922049 19.6009615384615  C 1.17074981440238 19.6153846153846  1.08611729769859 19.6225961538462  0.973273942093541 19.6225961538462  C 0.719376391982183 19.6225961538462  0.500742390497402 19.5432692307692  0.317371937639198 19.3846153846154  C 0.0634743875278396 19.1682692307692  -0.0282108389012621 18.8870192307692  0.0423162583518931 18.5408653846154  L 4.29510022271715 0.692307692307694  C 4.35152190051967 0.490384615384614  4.46436525612472 0.324519230769233  4.63363028953229 0.194711538461539  C 4.80289532293987 0.0649038461538449  5.0003711952487 0  5.2260579064588 0  L 12.1659242761693 0  C 12.4339272457313 0  12.6596139569414 0.090144230769226  12.8429844097996 0.270432692307694  C 13.0263548626578 0.450721153846154  13.1180400890869 0.663461538461536  13.1180400890869 0.908653846153845  C 13.1180400890869 1.02403846153846  13.0827765404603 1.15384615384615  13.0122494432071 1.29807692307692  L 9.39420935412027 11.3149038461538  L 17.7728285077951 9.19471153846154  C 17.8856718634001 9.16586538461538  17.9703043801039 9.15144230769231  18.0267260579065 9.15144230769231  Z " fill-rule="evenodd" />
    </mask>
  </defs>
  <g transform="matrix(1 0 0 1 -266 -613 )">
    <path d="M 18.0267260579065 9.15144230769231  C 18.2947290274684 9.15144230769231  18.5345211581292 9.25961538461538  18.7461024498886 9.47596153846154  C 19 9.76442307692308  19.0493689680772 10.0817307692308  18.8942093541203 10.4278846153846  L 7.46881959910913 35.4591346153846  C 7.28544914625093 35.8197115384615  6.98923533778768 36  6.58017817371938 36  C 6.52375649591685 36  6.42501855976244 35.9855769230769  6.28396436525613 35.9567307692308  C 6.0441722345954 35.8846153846154  5.86432813659985 35.7475961538462  5.74443207126949 35.5456730769231  C 5.62453600593912 35.34375  5.59279881217521 35.1274038461538  5.64922048997773 34.8966346153846  L 9.8173719376392 17.4158653846154  L 1.2271714922049 19.6009615384615  C 1.17074981440238 19.6153846153846  1.08611729769859 19.6225961538462  0.973273942093541 19.6225961538462  C 0.719376391982183 19.6225961538462  0.500742390497402 19.5432692307692  0.317371937639198 19.3846153846154  C 0.0634743875278396 19.1682692307692  -0.0282108389012621 18.8870192307692  0.0423162583518931 18.5408653846154  L 4.29510022271715 0.692307692307694  C 4.35152190051967 0.490384615384614  4.46436525612472 0.324519230769233  4.63363028953229 0.194711538461539  C 4.80289532293987 0.0649038461538449  5.0003711952487 0  5.2260579064588 0  L 12.1659242761693 0  C 12.4339272457313 0  12.6596139569414 0.090144230769226  12.8429844097996 0.270432692307694  C 13.0263548626578 0.450721153846154  13.1180400890869 0.663461538461536  13.1180400890869 0.908653846153845  C 13.1180400890869 1.02403846153846  13.0827765404603 1.15384615384615  13.0122494432071 1.29807692307692  L 9.39420935412027 11.3149038461538  L 17.7728285077951 9.19471153846154  C 17.8856718634001 9.16586538461538  17.9703043801039 9.15144230769231  18.0267260579065 9.15144230769231  Z " fill-rule="nonzero" fill="#000000" stroke="none" transform="matrix(1 0 0 1 266 613 )" />
    <path d="M 18.0267260579065 9.15144230769231  C 18.2947290274684 9.15144230769231  18.5345211581292 9.25961538461538  18.7461024498886 9.47596153846154  C 19 9.76442307692308  19.0493689680772 10.0817307692308  18.8942093541203 10.4278846153846  L 7.46881959910913 35.4591346153846  C 7.28544914625093 35.8197115384615  6.98923533778768 36  6.58017817371938 36  C 6.52375649591685 36  6.42501855976244 35.9855769230769  6.28396436525613 35.9567307692308  C 6.0441722345954 35.8846153846154  5.86432813659985 35.7475961538462  5.74443207126949 35.5456730769231  C 5.62453600593912 35.34375  5.59279881217521 35.1274038461538  5.64922048997773 34.8966346153846  L 9.8173719376392 17.4158653846154  L 1.2271714922049 19.6009615384615  C 1.17074981440238 19.6153846153846  1.08611729769859 19.6225961538462  0.973273942093541 19.6225961538462  C 0.719376391982183 19.6225961538462  0.500742390497402 19.5432692307692  0.317371937639198 19.3846153846154  C 0.0634743875278396 19.1682692307692  -0.0282108389012621 18.8870192307692  0.0423162583518931 18.5408653846154  L 4.29510022271715 0.692307692307694  C 4.35152190051967 0.490384615384614  4.46436525612472 0.324519230769233  4.63363028953229 0.194711538461539  C 4.80289532293987 0.0649038461538449  5.0003711952487 0  5.2260579064588 0  L 12.1659242761693 0  C 12.4339272457313 0  12.6596139569414 0.090144230769226  12.8429844097996 0.270432692307694  C 13.0263548626578 0.450721153846154  13.1180400890869 0.663461538461536  13.1180400890869 0.908653846153845  C 13.1180400890869 1.02403846153846  13.0827765404603 1.15384615384615  13.0122494432071 1.29807692307692  L 9.39420935412027 11.3149038461538  L 17.7728285077951 9.19471153846154  C 17.8856718634001 9.16586538461538  17.9703043801039 9.15144230769231  18.0267260579065 9.15144230769231  Z " stroke-width="2" stroke="#000000" fill="none" transform="matrix(1 0 0 1 266 613 )" mask="url(#clip40)" />
  </g>
</svg>