<?xml version="1.0" encoding="utf-8"?>
<svg version="1.1" xmlns:xlink="http://www.w3.org/1999/xlink" width="45px" height="36px" xmlns="http://www.w3.org/2000/svg">
  <g transform="matrix(1 0 0 1 -315 -16 )">
    <path d="M 38.5315985130112 20.5674201091193  C 38.5501858736059 20.6048324240062  38.5594795539033 20.6609508963367  38 20.7357755261107  L 38 34.2042088854248  C 38.5594795539033 34.6905689789556  38.3828996282528 35.1114575214341  38.0297397769517 35.4668745128605  C 37.6765799256506 35.8222915042868  37.2583643122677 36  36.775092936803 36  L 26 36  L 26 25.2252533125487  L 19 25.2252533125487  L 19 36  L 8.22490706319703 36  C 7.74163568773234 36  7.32342007434944 35.8222915042868  6.97026022304833 35.4668745128605  C 6.61710037174721 35.1114575214341  6.44052044609665 34.6905689789556  7 34.2042088854248  L 7 20.7357755261107  C 6.44052044609665 20.7170693686672  6.44516728624535 20.6890101325019  6.45446096654275 20.651597817615  C 6.46375464684015 20.614185502728  6.46840148698885 20.5861262665627  6.46840148698885 20.5674201091193  L 22.5 7.26734216679657  L 38.5315985130112 20.5674201091193  Z M 44.9721189591078 18.1402961808262  C 44.9907063197026 18.3928293063133  44.9256505576208 18.6126266562744  44.7769516728625 18.7996882307093  L 43.0483271375465 20.8760717069369  C 42.8996282527881 21.0444271239283  42.7044609665428 21.1473109898675  42.4628252788104 21.1847233047545  L 42.3791821561338 21.1847233047545  C 42.1375464684015 21.1847233047545  41.9423791821561 21.1192517537023  41.7936802973978 20.9883086515978  L 22.5 4.79812938425565  L 3.20631970260223 20.9883086515978  C 2.98327137546468 21.1379579111457  2.76022304832714 21.203429462198  2.53717472118959 21.1847233047545  C 2.29553903345725 21.1473109898675  2.1003717472119 21.0444271239283  1.95167286245353 20.8760717069369  L 0.223048327137546 18.7996882307093  C 0.0743494423791822 18.6126266562744  0.00929368029739784 18.3928293063133  0.0278810408921933 18.1402961808262  C 0.046468401486989 17.8877630553391  0.148698884758364 17.6866718628215  0.33457249070632 17.5370226032736  L 20.3810408921933 0.729540140296182  C 20.9758364312268 0.24318004676539  21.682156133829 0  22.5 0  C 23.317843866171 0  24.0241635687732 0.24318004676539  24.6189591078067 0.729540140296182  L 31.4219330855019 6.45362431800467  L 31.4219330855019 0.982073265783319  C 31.4219330855019 0.720187061574431  31.5055762081784 0.505066250974278  31.6728624535316 0.336710833982854  C 31.8401486988848 0.168355416991427  32.0539033457249 0.0841777084957136  32.314126394052 0.0841777084957136  L 37.6672862453532 0.0841777084957136  C 37.9275092936803 0.0841777084957136  38.1412639405204 0.168355416991427  38.3085501858736 0.336710833982854  C 38.4758364312268 0.505066250974278  38.5594795539033 0.720187061574431  38 0.982073265783319  L 38 12.4302416212003  L 44.6654275092937 17.5370226032736  C 44.8513011152416 17.6866718628215  44.953531598513 17.8877630553391  44.9721189591078 18.1402961808262  Z " fill-rule="nonzero" fill="#ffffff" stroke="none" transform="matrix(1 0 0 1 315 16 )" />
  </g>
</svg>