<?xml version="1.0" encoding="utf-8"?>
<svg version="1.1" xmlns:xlink="http://www.w3.org/1999/xlink" width="154px" height="104px" xmlns="http://www.w3.org/2000/svg">
  <defs>
    <filter x="27px" y="534px" width="154px" height="104px" filterUnits="userSpaceOnUse" id="filter16">
      <feOffset dx="3" dy="3" in="SourceAlpha" result="shadowOffsetInner" />
      <feGaussianBlur stdDeviation="0.5" in="shadowOffsetInner" result="shadowGaussian" />
      <feComposite in2="shadowGaussian" operator="atop" in="SourceAlpha" result="shadowComposite" />
      <feColorMatrix type="matrix" values="0 0 0 0 0  0 0 0 0 0  0 0 0 0 0  0 0 0 0.996078431372549 0  " in="shadowComposite" />
    </filter>
    <g id="widget17">
      <path d="M 28.5 539  A 3.5 3.5 0 0 1 32 535.5 L 172 535.5  A 3.5 3.5 0 0 1 175.5 539 L 175.5 629  A 3.5 3.5 0 0 1 172 632.5 L 32 632.5  A 3.5 3.5 0 0 1 28.5 629 L 28.5 539  Z " fill-rule="nonzero" fill="#ff00d6" stroke="none" fill-opacity="0.996078431372549" />
      <path d="M 28 539  A 4 4 0 0 1 32 535 L 172 535  A 4 4 0 0 1 176 539 L 176 629  A 4 4 0 0 1 172 633 L 32 633  A 4 4 0 0 1 28 629 L 28 539  Z " stroke-width="2" stroke="#000000" fill="none" />
    </g>
  </defs>
  <g transform="matrix(1 0 0 1 -27 -534 )">
    <use xlink:href="#widget17" filter="url(#filter16)" />
    <use xlink:href="#widget17" />
  </g>
</svg>