<?xml version="1.0" encoding="utf-8"?>
<svg version="1.1" xmlns:xlink="http://www.w3.org/1999/xlink" width="50px" height="52px" xmlns="http://www.w3.org/2000/svg">
  <g transform="matrix(1 0 0 1 -241 -424 )">
    <path d="M 12.9616477272727 39.6432291666667  C 13.4114583333333 40.0720486111111  13.6363636363636 40.5798611111111  13.6363636363636 41.1666666666667  C 13.6363636363636 41.7534722222222  13.4114583333333 42.2612847222222  12.9616477272727 42.6901041666667  C 12.5118371212121 43.1189236111111  11.9791666666667 43.3333333333333  11.3636363636364 43.3333333333333  C 10.7481060606061 43.3333333333333  10.2154356060606 43.1189236111111  9.765625 42.6901041666667  C 9.31581439393939 42.2612847222222  9.09090909090909 41.7534722222222  9.09090909090909 41.1666666666667  C 9.09090909090909 40.5798611111111  9.31581439393939 40.0720486111111  9.765625 39.6432291666667  C 10.2154356060606 39.2144097222222  10.7481060606061 39  11.3636363636364 39  C 11.9791666666667 39  12.5118371212121 39.2144097222222  12.9616477272727 39.6432291666667  Z M 49.8046875 38.796875  C 49.9348958333333 40.21875  50 41.6970486111111  50 43.2317708333333  C 50 45.9626736111111  49.1358901515152 48.1067708333333  47.4076704545455 49.6640625  C 45.6794507575758 51.2213541666667  43.3830492424242 52  40.5184659090909 52  L 9.48153409090909 52  C 6.61695075757576 52  4.32054924242424 51.2213541666667  2.59232954545455 49.6640625  C 0.864109848484848 48.1067708333333  0 45.9626736111111  0 43.2317708333333  C 0 41.6970486111111  0.0651041666666667 40.21875  0.1953125 38.796875  C 0.325520833333333 37.375  0.609611742424242 35.8177083333333  1.04758522727273 34.125  C 1.48555871212121 32.4322916666667  2.04782196969697 30.9370659722222  2.734375 29.6393229166667  C 3.42092803030303 28.3415798611111  4.37973484848485 27.1792534722222  5.61079545454545 26.15234375  C 6.84185606060606 25.1254340277778  8.26231060606061 24.4427083333333  9.87215909090909 24.1041666666667  C 9.35132575757576 25.2777777777778  9.09090909090909 26.6319444444444  9.09090909090909 28.1666666666667  L 9.09090909090909 35.0390625  C 7.71780303030303 35.4904513888889  6.61695075757576 36.2803819444444  5.78835227272727 37.4088541666667  C 4.95975378787879 38.5373263888889  4.54545454545455 39.7899305555556  4.54545454545455 41.1666666666667  C 4.54545454545455 42.9722222222222  5.20833333333333 44.5069444444444  6.53409090909091 45.7708333333333  C 7.85984848484849 47.0347222222222  9.46969696969697 47.6666666666667  11.3636363636364 47.6666666666667  C 13.2575757575758 47.6666666666667  14.8674242424242 47.0347222222222  16.1931818181818 45.7708333333333  C 17.5189393939394 44.5069444444444  18.1818181818182 42.9722222222222  18.1818181818182 41.1666666666667  C 18.1818181818182 39.7899305555556  17.7616003787879 38.5373263888889  16.9211647727273 37.4088541666667  C 16.0807291666667 36.2803819444444  14.9857954545455 35.4904513888889  13.6363636363636 35.0390625  L 13.6363636363636 28.1666666666667  C 13.6363636363636 26.7673611111111  13.9322916666667 25.7178819444444  14.5241477272727 25.0182291666667  C 17.6491477272727 27.3654513888889  21.1410984848485 28.5390625  25 28.5390625  C 28.8589015151515 28.5390625  32.3508522727273 27.3654513888889  35.4758522727273 25.0182291666667  C 36.0677083333333 25.7178819444444  36.3636363636364 26.7673611111111  36.3636363636364 28.1666666666667  L 36.3636363636364 30.3333333333333  C 33.8541666666667 30.3333333333333  31.7116477272727 31.1796875  29.9360795454545 32.8723958333333  C 28.1605113636364 34.5651041666667  27.2727272727273 36.6076388888889  27.2727272727273 39  L 27.2727272727273 42.0130208333333  C 26.5151515151515 42.6675347222222  26.1363636363636 43.46875  26.1363636363636 44.4166666666667  C 26.1363636363636 45.3194444444444  26.467803030303 46.0868055555556  27.1306818181818 46.71875  C 27.7935606060606 47.3506944444444  28.5984848484849 47.6666666666667  29.5454545454545 47.6666666666667  C 30.4924242424242 47.6666666666667  31.2973484848485 47.3506944444444  31.9602272727273 46.71875  C 32.6231060606061 46.0868055555556  32.9545454545455 45.3194444444444  32.9545454545455 44.4166666666667  C 32.9545454545455 43.46875  32.5757575757576 42.6675347222222  31.8181818181818 42.0130208333333  L 31.8181818181818 39  C 31.8181818181818 37.8263888888889  32.2679924242424 36.8107638888889  33.1676136363636 35.953125  C 34.0672348484849 35.0954861111111  35.1325757575758 34.6666666666667  36.3636363636364 34.6666666666667  C 37.594696969697 34.6666666666667  38.6600378787879 35.0954861111111  39.5596590909091 35.953125  C 40.4592803030303 36.8107638888889  40.9090909090909 37.8263888888889  40.9090909090909 39  L 40.9090909090909 42.0130208333333  C 40.1515151515152 42.6675347222222  39.7727272727273 43.46875  39.7727272727273 44.4166666666667  C 39.7727272727273 45.3194444444444  40.1041666666667 46.0868055555556  40.7670454545455 46.71875  C 41.4299242424242 47.3506944444444  42.2348484848485 47.6666666666667  43.1818181818182 47.6666666666667  C 44.1287878787879 47.6666666666667  44.9337121212121 47.3506944444444  45.5965909090909 46.71875  C 46.2594696969697 46.0868055555556  46.5909090909091 45.3194444444444  46.5909090909091 44.4166666666667  C 46.5909090909091 43.46875  46.2121212121212 42.6675347222222  45.4545454545455 42.0130208333333  L 45.4545454545455 39  C 45.4545454545455 37.4652777777778  45.0461647727273 36.0264756944444  44.2294034090909 34.68359375  C 43.4126420454545 33.3407118055556  42.3058712121212 32.2855902777778  40.9090909090909 31.5182291666667  C 40.9090909090909 31.2925347222222  40.915009469697 30.8129340277778  40.9268465909091 30.0794270833333  C 40.9386837121212 29.3459201388889  40.9386837121212 28.8042534722222  40.9268465909091 28.4544270833333  C 40.915009469697 28.1046006944444  40.8854166666667 27.6362847222222  40.8380681818182 27.0494791666667  C 40.7907196969697 26.4626736111111  40.7078598484849 25.9322916666667  40.5894886363636 25.4583333333333  C 40.4711174242424 24.984375  40.3172348484849 24.5329861111111  40.1278409090909 24.1041666666667  C 41.7376893939394 24.4427083333333  43.1581439393939 25.1254340277778  44.3892045454545 26.15234375  C 45.6202651515152 27.1792534722222  46.579071969697 28.3415798611111  47.265625 29.6393229166667  C 47.952178030303 30.9370659722222  48.5144412878788 32.4322916666667  48.9524147727273 34.125  C 49.3903882575758 35.8177083333333  49.6744791666667 37.375  49.8046875 38.796875  Z M 34.6413352272727 3.80859375  C 37.3046875 6.34765625  38.6363636363636 9.41145833333334  38.6363636363636 13  C 38.6363636363636 16.5885416666667  37.3046875 19.65234375  34.6413352272727 22.19140625  C 31.9779829545455 24.73046875  28.7642045454545 26  25 26  C 21.2357954545455 26  18.0220170454545 24.73046875  15.3586647727273 22.19140625  C 12.6953125 19.65234375  11.3636363636364 16.5885416666667  11.3636363636364 13  C 11.3636363636364 9.41145833333334  12.6953125 6.34765625  15.3586647727273 3.80859375  C 18.0220170454545 1.26953125  21.2357954545455 0  25 0  C 28.7642045454545 0  31.9779829545455 1.26953125  34.6413352272727 3.80859375  Z " fill-rule="nonzero" fill="#f59a23" stroke="none" transform="matrix(1 0 0 1 241 424 )" />
  </g>
</svg>