<?xml version="1.0" encoding="utf-8"?>
<svg version="1.1" xmlns:xlink="http://www.w3.org/1999/xlink" width="93px" height="80px" xmlns="http://www.w3.org/2000/svg">
  <g transform="matrix(1 0 0 1 -55 -106 )">
    <path d="M 36.64296875 36.3701923076923  C 39.3716145833333 33.661858974359  42.6572916666667 32.3076923076923  46.5 32.3076923076923  C 50.3427083333333 32.3076923076923  53.6283854166667 33.661858974359  56.35703125 36.3701923076923  C 59.0856770833333 39.0785256410256  60.45 42.3397435897436  60.45 46.1538461538461  C 60.45 49.9679487179487  59.0856770833333 53.2291666666667  56.35703125 55.9375  C 53.6283854166667 58.6458333333333  50.3427083333333 60  46.5 60  C 42.6572916666667 60  39.3716145833333 58.6458333333333  36.64296875 55.9375  C 33.9143229166667 53.2291666666667  32.55 49.9679487179487  32.55 46.1538461538461  C 32.55 42.3397435897436  33.9143229166667 39.0785256410256  36.64296875 36.3701923076923  Z M 69.75 13  L 80.6 13  C 84.0229166666667 12.3076923076923  86.9453125 13.5096153846154  89.3671875 15.9134615384615  C 91.7890625 18.3173076923077  93 21.2179487179487  93 24.6153846153846  L 93 67.6923076923077  C 93 71.0897435897436  91.7890625 73.9903846153846  89.3671875 76.3942307692308  C 86.9453125 78.7980769230769  84.0229166666667 80  80.6 80  L 12.4 80  C 8.97708333333333 80  6.0546875 78.7980769230769  3.6328125 76.3942307692308  C 1.2109375 73.9903846153846  0 71.0897435897436  0 67.6923076923077  L 0 24.6153846153846  C 0 21.2179487179487  1.2109375 18.3173076923077  3.6328125 15.9134615384615  C 6.0546875 13.5096153846154  8.97708333333333 12.3076923076923  12.4 13  L 23.25 13  L 25.7203125 5.76923076923077  C 26.3338541666667 4.19871794871795  27.4559895833333 2.84455128205128  29.08671875 1.70673076923077  C 30.7174479166667 0.568910256410264  32.3885416666667 0  34.1 0  L 58.9 0  C 60.6114583333333 0  62.2825520833333 0.568910256410264  63.91328125 1.70673076923077  C 65.5440104166667 2.84455128205128  66.6661458333333 4.19871794871795  67.2796875 5.76923076923077  L 69.75 13  Z M 31.16953125 61.3701923076923  C 35.4158854166667 65.5849358974359  40.5260416666667 67.6923076923077  46.5 67.6923076923077  C 52.4739583333333 67.6923076923077  57.5841145833333 65.5849358974359  61.83046875 61.3701923076923  C 66.0768229166667 57.1554487179487  68.2 52.0833333333333  68.2 46.1538461538461  C 68.2 40.224358974359  66.0768229166667 35.1522435897436  61.83046875 30.9375  C 57.5841145833333 26.7227564102564  52.4739583333333 24.6153846153846  46.5 24.6153846153846  C 40.5260416666667 24.6153846153846  35.4158854166667 26.7227564102564  31.16953125 30.9375  C 26.9231770833333 35.1522435897436  24.8 40.224358974359  24.8 46.1538461538461  C 24.8 52.0833333333333  26.9231770833333 57.1554487179487  31.16953125 61.3701923076923  Z " fill-rule="nonzero" fill="#ffffff" stroke="none" transform="matrix(1 0 0 1 55 106 )" />
  </g>
</svg>