<?xml version="1.0" encoding="utf-8"?>
<svg version="1.1" xmlns:xlink="http://www.w3.org/1999/xlink" width="119px" height="93px" xmlns="http://www.w3.org/2000/svg">
  <g transform="matrix(1 0 0 1 -42 -395 )">
    <path d="M 55.4977578475336 69.75  L 59.2331838565022 69.75  L 66.9708520179372 62.0880681818182  L 56.8318385650224 52.0482954545454  L 49.0941704035874 59.7102272727273  L 49.0941704035874 63.4090909090909  L 55.4977578475336 63.4090909090909  L 55.4977578475336 69.75  Z M 88.5162556053812 24.3728693181818  C 89.2722346786248 23.6242897727273  89.2944693572496 22.8977272727273  88.5829596412556 22.1931818181818  C 87.8714499252616 21.4886363636364  87.1377055306428 21.5106534090909  86.3817264573991 22.2592329545455  L 63.0353139013453 45.3771306818182  C 62.2793348281016 46.1257102272727  62.2571001494768 46.8522727272727  62.9686098654708 47.5568181818182  C 63.6801195814649 48.2613636363636  64.4138639760837 48.2393465909091  65.1698430493274 47.4907670454546  L 88.5162556053812 24.3728693181818  Z M 92.585201793722 59.5120738636364  C 93.4745889387145 59.8643465909091  93.9192825112108 60.5028409090909  94 61.4275568181818  L 94 73.9772727272727  C 93.9192825112108 79.2173295454545  92.0404521674141 83.6977982954545  88.2827914798206 87.4186789772727  C 84.5251307922272 91.1395596590909  80.0003736920777 93  74.7085201793722 93  L 19.2107623318386 93  C 13.918908819133 93  9.39415171898356 91.1395596590909  5.63649103139013 87.4186789772727  C 1.87883034379671 83.6977982954545  0 79.2173295454545  0 73.9772727272727  L 0 19.0227272727273  C 0 13.7826704545454  1.87883034379671 9.30220170454545  5.63649103139013 5.58132102272728  C 9.39415171898356 1.86044034090908  13.918908819133 0  19.2107623318386 0  L 74.7085201793722 0  C 77.5100896860987 0  80.1115470852018 0.550426136363631  82.5128923766816 1.6512784090909  C 83.179932735426 1.95951704545454  83.5801569506726 2.46590909090909  83.7135650224215 3.17045454545454  C 83.8469730941704 3.91903409090909  83.6468609865471 4.5575284090909  83.1132286995516 5.0859375  L 79.844730941704 8.32244318181818  C 79.2221599402093 8.93892045454545  78.5106502242153 9.11505681818182  77.710201793722 8.85085227272728  C 76.6874065769806 8.58664772727272  75.686846038864 8.45454545454546  74.7085201793722 9  L 19.2107623318386 9  C 16.2757847533632 8.45454545454546  13.7632660687593 9.48934659090908  11.6732062780269 11.5589488636364  C 9.58314648729447 13.6285511363636  8.53811659192825 16.1164772727273  9 19.0227272727273  L 9 73.9772727272727  C 8.53811659192825 76.8835227272727  9.58314648729447 79.3714488636363  11.6732062780269 81.4410511363636  C 13.7632660687593 83.5106534090909  16.2757847533632 84.5454545454545  19.2107623318386 84  L 74.7085201793722 84  C 77.6434977578475 84.5454545454545  80.1560164424514 83.5106534090909  82.2460762331839 81.4410511363636  C 84.3361360239163 79.3714488636363  85.3811659192825 76.8835227272727  85.3811659192825 73.9772727272727  L 85.3811659192825 65.6548295454545  C 85.3811659192825 65.0823863636364  85.5812780269058 64.5980113636364  85.9815022421525 64.2017045454545  L 90.2505605381166 59.9744318181818  C 90.917600896861 59.3139204545454  91.6958146487295 59.1598011363636  92.585201793722 59.5120738636364  Z M 43 57.0681818181818  L 87.5156950672646 12.6818181818182  L 106.726457399103 31.7045454545455  L 61.9013452914798 76  L 43 76  L 43 57.0681818181818  Z M 119 16.9090909090909  C 119 18.6704545454545  118.377428998505 20.1676136363636  117.132286995516 21.4005681818182  L 110.995515695067 27.4772727272727  L 91.7847533632287 8.45454545454546  L 97.9215246636771 2.3778409090909  C 99.1666666666667 1.14488636363635  100.678624813154 0.528409090909096  102.457399103139 0.528409090909096  C 104.236173393124 0.528409090909096  105.748131539611 1.14488636363635  106.993273542601 2.3778409090909  L 117.132286995516 12.4176136363636  C 118.377428998505 13.6505681818182  119 15.1477272727273  119 16.9090909090909  Z " fill-rule="nonzero" fill="#ffffff" stroke="none" transform="matrix(1 0 0 1 42 395 )" />
  </g>
</svg>