<?xml version="1.0" encoding="utf-8"?>
<svg version="1.1" xmlns:xlink="http://www.w3.org/1999/xlink" width="86px" height="93px" xmlns="http://www.w3.org/2000/svg">
  <g transform="matrix(1 0 0 1 -59 -247 )">
    <path d="M 22.2940340909091 70.900390625  C 23.0677083333333 71.6673177083333  23.4545454545455 72.5755208333333  23.4545454545455 73.625  C 23.4545454545455 74.6744791666667  23.0677083333333 75.5826822916667  22.2940340909091 76.349609375  C 21.5203598484848 77.1165364583333  20.6041666666667 77.5  19.5454545454545 77.5  C 18.4867424242424 77.5  17.5705492424242 77.1165364583333  16.796875 76.349609375  C 16.0232007575758 75.5826822916667  15.6363636363636 74.6744791666667  15.6363636363636 73.625  C 15.6363636363636 72.5755208333333  16.0232007575758 71.6673177083333  16.796875 70.900390625  C 17.5705492424242 70.1334635416667  18.4867424242424 69.75  19.5454545454545 69.75  C 20.6041666666667 69.75  21.5203598484848 70.1334635416667  22.2940340909091 70.900390625  Z M 85.6640625 69.38671875  C 85.8880208333333 71.9296875  86 74.5735677083333  86 77.318359375  C 86 82.2024739583333  84.5137310606061 86.037109375  81.5411931818182 88.822265625  C 78.5686553030303 91.607421875  74.6188446969697 93  69.6917613636364 93  L 16.3082386363636 93  C 11.3811553030303 93  7.4313446969697 91.607421875  4.45880681818182 88.822265625  C 1.48626893939394 86.037109375  0 82.2024739583333  0 77.318359375  C 0 74.5735677083333  0.111979166666667 71.9296875  0.3359375 69.38671875  C 0.559895833333333 66.84375  1.0485321969697 64.05859375  1.80184659090909 61.03125  C 2.55516098484848 58.00390625  3.52225378787879 55.3297526041667  4.703125 53.0087890625  C 5.88399621212121 50.6878255208333  7.53314393939394 48.6090494791667  9.65056818181818 46.7724609375  C 11.7679924242424 44.9358723958333  14.2111742424242 43.71484375  16.9801136363636 43.109375  C 16.0842803030303 45.2083333333333  15.6363636363636 47.6302083333333  16 50.375  L 16 62.666015625  C 13.2746212121212 63.4733072916667  11.3811553030303 64.8860677083333  9.95596590909091 66.904296875  C 8.53077651515152 68.9225260416667  7.81818181818182 71.1627604166667  7.81818181818182 73.625  C 7.81818181818182 76.8541666666667  8.95833333333334 79.5989583333333  11.2386363636364 81.859375  C 13.5189393939394 84.1197916666667  16.2878787878788 85.25  19.5454545454545 85.25  C 22.8030303030303 85.25  25.5719696969697 84.1197916666667  27.8522727272727 81.859375  C 30.1325757575758 79.5989583333333  31.2727272727273 76.8541666666667  31.2727272727273 73.625  C 31.2727272727273 71.1627604166667  30.5499526515152 68.9225260416667  29.1044034090909 66.904296875  C 27.6588541666667 64.8860677083333  25.7755681818182 63.4733072916667  24 62.666015625  L 24 50.375  C 23.4545454545455 47.8723958333333  23.9635416666667 45.9954427083333  24.9815340909091 44.744140625  C 30.3565340909091 48.9420572916667  36.3626893939394 51.041015625  43 51.041015625  C 49.6373106060606 51.041015625  55.6434659090909 48.9420572916667  61.0184659090909 44.744140625  C 62.0364583333333 45.9954427083333  62.5454545454545 47.8723958333333  62.5454545454545 50.375  L 62.5454545454545 54.25  C 58.2291666666667 54.25  54.5440340909091 55.763671875  51.4900568181818 58.791015625  C 48.4360795454545 61.818359375  46.9090909090909 65.4713541666667  46.9090909090909 69.75  L 46.9090909090909 75.138671875  C 45.6060606060606 76.3092447916667  44.9545454545455 77.7421875  44.9545454545455 79.4375  C 44.9545454545455 81.0520833333333  45.5246212121212 82.4244791666667  46.6647727272727 83.5546875  C 47.8049242424242 84.6848958333333  49.189393939394 85.25  50.8181818181818 85.25  C 52.4469696969697 85.25  53.8314393939394 84.6848958333333  54.9715909090909 83.5546875  C 56.1117424242424 82.4244791666667  56.6818181818182 81.0520833333333  56.6818181818182 79.4375  C 56.6818181818182 77.7421875  56.030303030303 76.3092447916667  54.7272727272727 75.138671875  L 54.7272727272727 69.75  C 54.7272727272727 67.6510416666667  55.500946969697 65.8346354166667  57.0482954545455 64.30078125  C 58.595643939394 62.7669270833333  60.4280303030303 62  62.5454545454545 62  C 64.6628787878788 62  66.4952651515152 62.7669270833333  68.0426136363636 64.30078125  C 69.5899621212121 65.8346354166667  70.3636363636364 67.6510416666667  70.3636363636364 69.75  L 70.3636363636364 75.138671875  C 69.0606060606061 76.3092447916667  68.4090909090909 77.7421875  68.4090909090909 79.4375  C 68.4090909090909 81.0520833333333  68.9791666666667 82.4244791666667  70.1193181818182 83.5546875  C 71.2594696969697 84.6848958333333  72.6439393939394 85.25  74.2727272727273 85.25  C 75.9015151515152 85.25  77.2859848484849 84.6848958333333  78.4261363636364 83.5546875  C 79.5662878787879 82.4244791666667  80.1363636363636 81.0520833333333  80.1363636363636 79.4375  C 80.1363636363636 77.7421875  79.4848484848485 76.3092447916667  78.1818181818182 75.138671875  L 78.1818181818182 69.75  C 78.1818181818182 67.0052083333333  77.4794034090909 64.4319661458333  76.0745738636364 62.0302734375  C 74.6697443181818 59.6285807291667  72.7660984848485 57.7415364583333  70.3636363636364 56.369140625  C 70.3636363636364 55.9654947916667  70.3738162878788 55.1077473958333  70.3941761363636 53.7958984375  C 70.4145359848485 52.4840494791667  70.4145359848485 51.5152994791667  70.3941761363636 50.8896484375  C 70.3738162878788 50.2639973958333  70.3229166666667 49.4264322916667  70.2414772727273 48.376953125  C 70.1600378787879 47.3274739583333  70.017518939394 46.37890625  69.8139204545455 45.53125  C 69.610321969697 44.68359375  69.345643939394 43.8763020833333  69.0198863636364 43.109375  C 71.7888257575758 43.71484375  74.2320075757576 44.9358723958333  76.3494318181818 46.7724609375  C 78.4668560606061 48.6090494791667  80.1160037878788 50.6878255208333  81.296875 53.0087890625  C 82.4777462121212 55.3297526041667  83.4448390151515 58.00390625  84.1981534090909 61.03125  C 84.9514678030303 64.05859375  85.4401041666667 66.84375  85.6640625 69.38671875  Z M 59.5830965909091 6.8115234375  C 64.1640625 11.3525390625  66.4545454545455 16.83203125  66.4545454545455 23.25  C 66.4545454545455 29.66796875  64.1640625 35.1474609375  59.5830965909091 39.6884765625  C 55.0021306818182 44.2294921875  49.4744318181818 46.5  43 46.5  C 36.5255681818182 46.5  30.9978693181818 44.2294921875  26.4169034090909 39.6884765625  C 21.8359375 35.1474609375  19.5454545454545 29.66796875  19.5454545454545 23.25  C 19.5454545454545 16.83203125  21.8359375 11.3525390625  26.4169034090909 6.8115234375  C 30.9978693181818 2.2705078125  36.5255681818182 0  43 0  C 49.4744318181818 0  55.0021306818182 2.2705078125  59.5830965909091 6.8115234375  Z " fill-rule="nonzero" fill="#ffffff" stroke="none" transform="matrix(1 0 0 1 59 247 )" />
  </g>
</svg>