<?xml version="1.0" encoding="utf-8"?>
<svg version="1.1" xmlns:xlink="http://www.w3.org/1999/xlink" width="66px" height="70px" xmlns="http://www.w3.org/2000/svg">
  <g transform="matrix(1 0 0 1 -61 -548 )">
    <path d="M 51.1328125 29.1666666666667  C 51.1328125 29.9565972222222  50.8606770833333 30.6401909722222  50.31640625 31.2174479166667  L 32.18359375 50.44921875  C 31.6393229166667 51.0264756944444  30.9947916666667 51.3151041666667  30.25 51.3151041666667  C 29.5052083333333 51.3151041666667  28.8606770833333 51.0264756944444  28.31640625 50.44921875  L 15.68359375 37.05078125  C 15.1393229166667 36.4735243055556  14.8671875 35.7899305555556  14.8671875 35  C 14.8671875 34.2100694444444  15.1393229166667 33.5264756944444  15.68359375 32.94921875  L 20.06640625 28.30078125  C 20.6106770833333 27.7235243055556  21.2552083333333 27.4348958333333  22 27.4348958333333  C 22.7447916666667 27.4348958333333  23.3893229166667 27.7235243055556  23.93359375 28.30078125  L 30.25 35  L 42.06640625 22.4674479166667  C 42.6106770833333 21.8901909722222  43.2552083333333 21.6015625  44 21.6015625  C 44.7447916666667 21.6015625  45.3893229166667 21.8901909722222  45.93359375 22.4674479166667  L 50.31640625 27.1158854166667  C 50.8606770833333 27.6931423611111  51.1328125 28.3767361111111  51.1328125 29.1666666666667  Z M 53.23828125 47.44140625  C 55.3294270833333 43.6436631944444  56.375 39.4965277777778  56.375 35  C 56.375 30.5034722222222  55.3294270833333 26.3563368055556  53.23828125 22.55859375  C 51.1471354166667 18.7608506944444  48.3111979166667 15.7530381944444  44.73046875 13.53515625  C 41.1497395833333 11.3172743055556  37.2395833333333 10.2083333333333  33 10.2083333333333  C 28.7604166666667 10.2083333333333  24.8502604166667 11.3172743055556  21.26953125 13.53515625  C 17.6888020833333 15.7530381944444  14.8528645833333 18.7608506944444  12.76171875 22.55859375  C 10.6705729166667 26.3563368055556  9.625 30.5034722222222  9.625 35  C 9.625 39.4965277777778  10.6705729166667 43.6436631944444  12.76171875 47.44140625  C 14.8528645833333 51.2391493055556  17.6888020833333 54.2469618055556  21.26953125 56.46484375  C 24.8502604166667 58.6827256944444  28.7604166666667 59.7916666666667  33 59.7916666666667  C 37.2395833333333 59.7916666666667  41.1497395833333 58.6827256944444  44.73046875 56.46484375  C 48.3111979166667 54.2469618055556  51.1471354166667 51.2391493055556  53.23828125 47.44140625  Z M 61.57421875 17.431640625  C 64.5247395833333 22.7940538194444  66 28.6501736111111  66 35  C 66 41.3498263888889  64.5247395833333 47.2059461805556  61.57421875 52.568359375  C 58.6236979166667 57.9307725694444  54.6204427083333 62.1766493055556  49.564453125 65.3059895833333  C 44.5084635416667 68.4353298611111  38.9869791666667 70  33 70  C 27.0130208333333 70  21.4915364583333 68.4353298611111  16.435546875 65.3059895833333  C 11.3795572916667 62.1766493055556  7.37630208333333 57.9307725694444  4.42578125 52.568359375  C 1.47526041666667 47.2059461805556  0 41.3498263888889  0 35  C 0 28.6501736111111  1.47526041666667 22.7940538194444  4.42578125 17.431640625  C 7.37630208333333 12.0692274305556  11.3795572916667 7.82335069444444  16.435546875 4.69401041666666  C 21.4915364583333 1.56467013888888  27.0130208333333 0  33 0  C 38.9869791666667 0  44.5084635416667 1.56467013888888  49.564453125 4.69401041666666  C 54.6204427083333 7.82335069444444  58.6236979166667 12.0692274305556  61.57421875 17.431640625  Z " fill-rule="nonzero" fill="#ffffff" stroke="none" transform="matrix(1 0 0 1 61 548 )" />
  </g>
</svg>