<?xml version="1.0" encoding="utf-8"?>
<svg version="1.1" xmlns:xlink="http://www.w3.org/1999/xlink" width="52px" height="44px" xmlns="http://www.w3.org/2000/svg">
  <g transform="matrix(1 0 0 1 -90 -427 )">
    <path d="M 23.40625 3.77496483825598  C 23.8020833333333 4.16690107829348  24 4.63103609939053  24 5.16736990154712  L 24 38.8326300984529  C 24 39.3689639006095  23.8020833333333 39.8330989217065  23.40625 40.225035161744  C 23.0104166666667 40.6169714017815  22.5416666666667 40.8129395218003  22 40.8129395218003  C 21.4583333333333 40.8129395218003  20.9895833333333 40.6169714017815  20.59375 40.225035161744  L 10.1875 29.9212376933896  L 2 29.9212376933896  C 1.45833333333333 29.9212376933896  0.989583333333333 29.7252695733708  0.59375 29.3333333333333  C 0.197916666666667 28.9413970932958  0 28.4772620721988  0 27.9409282700422  L 0 16.0590717299578  C 0 15.5227379278012  0.197916666666667 15.0586029067042  0.59375 14.6666666666667  C 0.989583333333333 14.2747304266292  1.45833333333333 14.0787623066104  2 14.0787623066104  L 10.1875 14.0787623066104  L 20.59375 3.77496483825598  C 20.9895833333333 3.38302859821847  21.4583333333333 3.18706047819972  22 3.18706047819972  C 22.5416666666667 3.18706047819972  23.0104166666667 3.38302859821847  23.40625 3.77496483825598  Z M 34.671875 17.606188466948  C 35.5572916666667 18.9676511954993  36 20.43225503985  36 22  C 36 23.56774496015  35.5572916666667 25.0271917487107  34.671875 26.3783403656821  C 33.7864583333333 27.7294889826535  32.6145833333333 28.6938584153774  31.15625 29.2714486638537  C 30.9479166666667 29.3745897796531  30.6875 29.4261603375527  30.375 29.4261603375527  C 29.8333333333333 29.4261603375527  29.3645833333333 29.235349273324  28.96875 28.8537271448664  C 28.5729166666667 28.4721050164088  28.375 28.0028129395218  28.375 27.4458509142053  C 28.375 27.0126582278481  28.5 26.6465072667604  28.75 26.3473980309423  C 29 26.0482887951242  29.3020833333333 25.7904360056259  29.65625 25.5738396624473  C 30.0104166666667 25.3572433192686  30.3645833333333 25.1200187529301  30.71875 24.8621659634318  C 31.0729166666667 24.6043131739334  31.375 24.2330051570558  31.625 23.7482419127989  C 31.875 23.263478668542  32 22.6807313642757  32 22  C 32 21.3192686357243  31.875 20.736521331458  31.625 20.2517580872011  C 31.375 19.7669948429442  31.0729166666667 19.3956868260666  30.71875 19.1378340365682  C 30.3645833333333 18.8799812470699  30.0104166666667 18.6427566807314  29.65625 18.4261603375527  C 29.3020833333333 18.2095639943741  29 17.9517112048758  28.75 17.6526019690577  C 28.5 17.3534927332396  28.375 16.9873417721519  28.375 16.5541490857947  C 28.375 15.9971870604782  28.5729166666667 15.5278949835912  28.96875 15.1462728551336  C 29.3645833333333 14.764650726676  29.8333333333333 14.5738396624473  30.375 14.5738396624473  C 30.6875 14.5738396624473  30.9479166666667 14.6254102203469  31.15625 14.7285513361463  C 32.6145833333333 15.2855133614627  33.7864583333333 16.2447257383966  34.671875 17.606188466948  Z M 41.34375 13.2587904360056  C 43.1145833333333 15.9301453352086  44 18.8438818565401  44 22  C 44 25.1561181434599  43.1145833333333 28.0698546647914  41.34375 30.7412095639944  C 39.5729166666667 33.4125644631974  37.2291666666667 35.356774496015  34.3125 36.5738396624473  C 34.0416666666667 36.6769807782466  33.78125 36.7285513361463  33.53125 36.7285513361463  C 32.96875 36.7285513361463  32.4895833333333 36.5325832161275  32.09375 36.14064697609  C 31.6979166666667 35.7487107360525  31.5 35.2845757149555  31.5 34.7482419127989  C 31.5 33.943741209564  31.90625 33.3352086263479  32.71875 32.9226441631505  C 33.8854166666667 32.3244256915143  34.6770833333333 31.8706047819972  35.09375 31.5611814345992  C 36.6354166666667 30.4472573839662  37.8385416666667 29.0496952648851  38.703125 27.3684950773558  C 39.5677083333333 25.6872948898265  40 23.8977965307079  40 22  C 40 20.1022034692921  39.5677083333333 18.3127051101735  38.703125 16.6315049226442  C 37.8385416666667 14.9503047351149  36.6354166666667 13.5527426160338  35.09375 12.4388185654008  C 34.6770833333333 12.1293952180028  33.8854166666667 11.6755743084857  32.71875 11.0773558368495  C 31.90625 10.6647913736521  31.5 10.056258790436  31.5 9.25175808720112  C 31.5 8.71542428504453  31.6979166666667 8.25128926394749  32.09375 7.85935302390999  C 32.4895833333333 7.46741678387248  32.9583333333333 7.27144866385373  33.5 7.27144866385373  C 33.7708333333333 7.27144866385373  34.0416666666667 7.32301922175339  34.3125 7.42616033755274  C 37.2291666666667 8.643225503985  39.5729166666667 10.5874355368026  41.34375 13.2587904360056  Z M 48.03125 8.92686357243319  C 50.6770833333333 12.8977965307079  52 17.2555086732302  52 22  C 52 26.7444913267698  50.6770833333333 31.1022034692921  48.03125 35.0731364275668  C 45.3854166666667 39.0440693858415  41.8645833333333 41.9681200187529  37.46875 43.845288326301  C 37.1979166666667 43.9484294421003  36.9270833333333 44  36.65625 44  C 36.1145833333333 44  35.6458333333333 43.8040318799813  35.25 43.4120956399437  C 34.8541666666667 43.0201593999062  34.65625 42.5560243788092  34.65625 42.0196905766526  C 34.65625 41.2770745428973  35.0625 40.6685419596812  35.875 40.1940928270042  C 36.0208333333333 40.1115799343647  36.2552083333333 40.0032817627754  36.578125 39.8691983122363  C 36.9010416666667 39.7351148616971  37.1354166666667 39.6268166901078  37.28125 39.5443037974684  C 38.2395833333333 39.0285982184716  39.09375 38.502578527895  39.84375 37.9662447257384  C 42.40625 36.0890764181903  44.40625 33.7477730895452  45.84375 30.9423347398031  C 47.28125 28.1368963900609  48 25.1561181434599  48 22  C 48 18.8438818565401  47.28125 15.8631036099391  45.84375 13.0576652601969  C 44.40625 10.2522269104548  42.40625 7.91092358180966  39.84375 6.0337552742616  C 39.09375 5.49742147210501  38.2395833333333 4.97140178152836  37.28125 4.45569620253164  C 37.1354166666667 4.37318330989217  36.9010416666667 4.26488513830286  36.578125 4.13080168776371  C 36.2552083333333 3.99671823722456  36.0208333333333 3.88842006563525  35.875 3.80590717299578  C 35.0625 3.33145804031879  34.65625 2.72292545710267  34.65625 1.9803094233474  C 34.65625 1.44397562119081  34.8541666666667 0.97984060009376  35.25 0.587904360056258  C 35.6458333333333 0.195968120018751  36.1145833333333 0  36.65625 0  C 36.9270833333333 0  37.1979166666667 0.051570557899669  37.46875 0.154711673699017  C 41.8645833333333 2.03187998124706  45.3854166666667 4.95593061415846  48.03125 8.92686357243319  Z " fill-rule="nonzero" fill="#0000ff" stroke="none" transform="matrix(1 0 0 1 90 427 )" />
  </g>
</svg>